# xmcd CD database file
#
# Track frame offsets:
#	150
#	10589
#	29890
#	38695
#	56885
#	72586
#	84118
#	96786
#	107951
#	123954
#	137444
#	150788
#	159578
#	178155
#
# Disc length: 2563 seconds
#
# Revision: 0
# Processed by: cddbd v1.5.2PL0 Copyright (c) Steve Scherf et al.
# Submitted via: CDex 1.78
#
DISCID=af0a010e
DTITLE=Sheesham and Lotus and Son - The High Stepping Music of Sheesham and Lotus and 'Son
DYEAR=2014
DGENRE=Blues
TTITLE0=Chinquipin
TTITLE1=KC Moan
TTITLE2=F and D Rag
TTITLE3=Got the Jake Leg Too 
TTITLE4=And the Cat Came Back - Black Cat in the Briar Patch
TTITLE5=Mississippi River Blues 
TTITLE6=Sales Tax Toddle 
TTITLE7=Up the Wooden Hills
TTITLE8=My Dixie Darling
TTITLE9=Salt and Pepper Drag
TTITLE10=Dallas Rag
TTITLE11=Swimming Blues
TTITLE12=The Blackberry Blossom
TTITLE13=Green Valley Waltz 
EXTD=YEAR: 2014
EXTT0=
EXTT1=
EXTT2=
EXTT3=
EXTT4=
EXTT5=
EXTT6=
EXTT7=
EXTT8=
EXTT9=
EXTT10=
EXTT11=
EXTT12=
EXTT13=
PLAYORDER=
